<svg xmlns="http://www.w3.org/2000/svg" width="60" height="60" viewBox="0 0 60 60"><rect width="100%" height="100%" fill="#DDDDDD"/><path fill="#999999" d="M26.39 19.155v13.98q0 1.83-.45 3.3t-1.34 2.5q-.89 1.04-2.23 1.59-1.33.56-3.1.56-.81 0-1.59-.1t-1.64-.3q.05-.61.11-1.2.06-.6.1-1.2.05-.34.26-.54.22-.2.63-.2.25 0 .66.11.42.1 1.05.1.85 0 1.51-.25.66-.24 1.1-.79.45-.54.67-1.4.23-.86.23-2.09v-14.07zm17.18 2.04-1.01 1.9q-.18.32-.38.46-.2.15-.5.15-.32 0-.69-.24-.36-.23-.87-.51-.51-.29-1.2-.52-.68-.23-1.61-.23-.84 0-1.47.2t-1.06.56q-.42.36-.63.86t-.21 1.11q0 .76.42 1.27.43.51 1.14.87.7.36 1.6.64.9.29 1.85.61.94.32 1.84.75t1.61 1.08q.7.65 1.13 1.6t.43 2.3q0 1.46-.51 2.75-.5 1.28-1.47 2.23-.96.96-2.36 1.5-1.39.55-3.19.55-1.04 0-2.04-.2-1.01-.2-1.93-.58-.92-.37-1.73-.9-.81-.52-1.44-1.17l1.18-1.93q.15-.21.39-.36.24-.14.51-.14.38 0 .81.31.44.31 1.04.68.6.38 1.4.68.8.31 1.93.31 1.72 0 2.67-.82.94-.81.94-2.34 0-.86-.43-1.4-.42-.54-1.13-.91-.7-.36-1.6-.62-.9-.25-1.83-.56-.93-.29-1.83-.71t-1.61-1.1q-.7-.68-1.13-1.69t-.43-2.5q0-1.18.47-2.31.48-1.12 1.38-1.99t2.22-1.39q1.32-.53 3.03-.53 1.92 0 3.54.6t2.76 1.68"/></svg>