<svg xmlns="http://www.w3.org/2000/svg" width="60" height="60" viewBox="0 0 60 60"><rect width="100%" height="100%" fill="#DDDDDD"/><path fill="#999999" d="M27.565 22.045h2.23v15.91h-2.61v-10.27q0-.62.07-1.33l-4.81 9.03q-.34.65-1.04.65h-.42q-.71 0-1.05-.65l-4.86-9.07.06.72q.02.35.02.65v10.27h-2.61v-15.91h2.23q.2 0 .34.02.15.01.26.05.12.04.21.14.1.1.18.27l4.77 8.83q.18.35.34.73.16.37.32.77.15-.41.32-.79.16-.38.35-.73l4.69-8.81q.09-.17.19-.27t.22-.14q.11-.04.25-.05.15-.02.35-.02m19.89 7.96q0 1.75-.58 3.21t-1.64 2.52q-1.05 1.05-2.54 1.64-1.48.58-3.3.58h-6.06v-15.91h6.06q1.82 0 3.3.59 1.49.59 2.54 1.64 1.06 1.05 1.64 2.52.58 1.46.58 3.21m-3.03 0q0-1.31-.35-2.35-.34-1.04-1-1.76-.65-.72-1.58-1.11-.93-.38-2.1-.38h-3.09v11.2h3.09q1.17 0 2.1-.39.93-.38 1.58-1.1.66-.72 1-1.76.35-1.04.35-2.35"/></svg>