<svg xmlns="http://www.w3.org/2000/svg" width="600" height="500" viewBox="0 0 600 500"><rect width="100%" height="100%" fill="#e2e8f0"/><path fill="#334155" d="M168.85 250q0 5.33-1.76 9.87-1.76 4.53-4.97 7.85-3.22 3.32-7.74 5.18t-10.05 1.86q-5.49 0-10.02-1.86-4.52-1.86-7.75-5.18t-5.01-7.85q-1.78-4.54-1.78-9.87t1.78-9.87 5.01-7.85q3.23-3.32 7.75-5.18 4.53-1.86 10.02-1.86 3.68 0 6.93.86 3.25.85 5.97 2.41 2.71 1.56 4.87 3.78 2.16 2.23 3.67 4.98t2.29 5.96q.79 3.22.79 6.77m-9.21 0q0-3.99-1.07-7.15-1.07-3.17-3.05-5.38t-4.81-3.38q-2.83-1.18-6.38-1.18t-6.38 1.18q-2.83 1.17-4.83 3.38-1.99 2.21-3.06 5.38-1.07 3.16-1.07 7.15t1.07 7.15q1.07 3.17 3.06 5.36 2 2.2 4.83 3.37t6.38 1.17 6.38-1.17 4.81-3.37q1.98-2.19 3.05-5.36 1.07-3.16 1.07-7.15m37.18-10.15h8.28v34.37h-5.06q-1.64 0-2.08-1.51l-.57-2.74q-2.11 2.14-4.65 3.46-2.55 1.33-6 1.33-2.81 0-4.97-.96-2.16-.95-3.64-2.7-1.47-1.74-2.23-4.13-.75-2.4-.75-5.28v-21.84h8.27v21.84q0 3.15 1.46 4.88 1.46 1.72 4.37 1.72 2.15 0 4.02-.95 1.88-.96 3.55-2.63zm23.76 2.08.5 3.88q1.61-3.08 3.82-4.84t5.22-1.76q2.38 0 3.82 1.04l-.53 6.2q-.17.6-.49.85t-.85.25q-.51 0-1.49-.16-.99-.17-1.93-.17-1.37 0-2.45.4-1.07.4-1.92 1.16-.86.75-1.51 1.82t-1.22 2.45v21.17h-8.28v-34.37h4.86q1.27 0 1.78.45.5.45.67 1.63m44.28 8.2h6.74q2.48 0 4.32-.62t3.06-1.77q1.23-1.16 1.83-2.82.6-1.65.6-3.7 0-1.94-.6-3.52-.6-1.57-1.81-2.68-1.21-1.1-3.05-1.69-1.84-.58-4.35-.58h-6.74zm-9.01-24.35h15.75q4.85 0 8.4 1.14 3.56 1.14 5.87 3.18t3.43 4.89 1.12 6.23q0 3.52-1.17 6.45t-3.52 5.04q-2.34 2.11-5.88 3.29-3.53 1.17-8.25 1.17h-6.74v17.05h-9.01zm47.47 16.15.5 3.88q1.61-3.08 3.82-4.84t5.23-1.76q2.38 0 3.82 1.04l-.54 6.2q-.17.6-.48.85-.32.25-.86.25-.5 0-1.49-.16-.99-.17-1.93-.17-1.37 0-2.44.4t-1.93 1.16q-.85.75-1.51 1.82-.65 1.07-1.22 2.45v21.17h-8.27v-34.37h4.86q1.27 0 1.77.45t.67 1.63m32.9-2.62q3.82 0 6.95 1.24t5.36 3.52 3.43 5.56q1.21 3.28 1.21 7.34 0 4.08-1.21 7.37-1.2 3.28-3.43 5.59t-5.36 3.55-6.95 1.24q-3.85 0-7-1.24t-5.38-3.55-3.45-5.59q-1.22-3.29-1.22-7.37 0-4.06 1.22-7.34t3.45-5.56 5.38-3.52 7-1.24m0 29.05q4.29 0 6.35-2.88t2.06-8.45q0-5.56-2.06-8.47-2.06-2.92-6.35-2.92-4.36 0-6.45 2.94-2.09 2.93-2.09 8.45 0 5.53 2.09 8.43t6.45 2.9m50.08-24.26-2.18 3.02q-.37.47-.72.74-.35.26-1.02.26-.64 0-1.24-.38-.6-.39-1.44-.87-.84-.49-1.99-.87-1.16-.39-2.87-.39-2.17 0-3.82.79-1.64.79-2.73 2.26-1.08 1.47-1.62 3.57-.54 2.09-.54 4.74 0 2.74.59 4.89.59 2.14 1.69 3.6 1.11 1.46 2.68 2.21 1.58.75 3.55.75 1.98 0 3.2-.48 1.22-.49 2.06-1.07.84-.59 1.46-1.08.62-.48 1.39-.48 1 0 1.51.77l2.38 3.01q-1.38 1.61-2.99 2.7-1.6 1.09-3.33 1.74-1.72.66-3.55.92-1.83.27-3.64.27-3.18 0-5.99-1.19-2.82-1.19-4.93-3.46-2.11-2.28-3.33-5.58t-1.22-7.52q0-3.79 1.09-7.02t3.2-5.6q2.11-2.36 5.22-3.7 3.12-1.34 7.17-1.34 3.85 0 6.75 1.24t5.21 3.55m12.03 8.98h15.61q0-1.61-.45-3.03-.46-1.42-1.36-2.5-.91-1.07-2.3-1.69t-3.23-.62q-3.58 0-5.64 2.05-2.06 2.04-2.63 5.79m21.1 4.99h-21.27q.2 2.65.94 4.58.73 1.92 1.94 3.18 1.21 1.25 2.86 1.87 1.66.62 3.67.62t3.47-.47q1.46-.46 2.55-1.03 1.08-.57 1.91-1.04.82-.47 1.59-.47 1.04 0 1.54.77l2.38 3.01q-1.38 1.61-3.09 2.7-1.7 1.09-3.56 1.74-1.86.66-3.79.92-1.93.27-3.73.27-3.59 0-6.67-1.19t-5.36-3.51q-2.28-2.33-3.59-5.77-1.3-3.43-1.3-7.95 0-3.52 1.14-6.62t3.26-5.39q2.13-2.3 5.2-3.64 3.06-1.34 6.91-1.34 3.25 0 6 1.04t4.72 3.03q1.98 2 3.1 4.89 1.12 2.9 1.12 6.62 0 1.88-.4 2.53t-1.54.65m30.99-14.5-1.88 2.98q-.33.53-.7.75t-.94.22q-.6 0-1.29-.33-.68-.34-1.59-.76-.9-.42-2.06-.75-1.16-.34-2.73-.34-2.45 0-3.84 1.04t-1.39 2.71q0 1.11.72 1.86.72.76 1.91 1.33t2.7 1.02 3.07.99q1.55.53 3.06 1.22t2.7 1.74q1.19 1.06 1.91 2.53.72 1.48.72 3.55 0 2.48-.89 4.58-.89 2.09-2.63 3.61-1.74 1.53-4.3 2.38-2.57.86-5.92.86-1.77 0-3.46-.32-1.7-.32-3.25-.89-1.56-.57-2.89-1.34-1.32-.77-2.32-1.68l1.91-3.14q.36-.57.87-.88.5-.3 1.27-.3t1.46.44q.68.43 1.59.94.9.5 2.13.93 1.22.44 3.09.44 1.48 0 2.53-.35 1.06-.35 1.75-.92.68-.57 1-1.33.32-.75.32-1.55 0-1.21-.72-1.98t-1.91-1.34-2.71-1.02q-1.53-.45-3.12-.99t-3.12-1.26q-1.52-.72-2.71-1.82-1.19-1.11-1.91-2.72-.72-1.6-.72-3.88 0-2.11.84-4.02t2.46-3.33q1.63-1.43 4.05-2.28 2.43-.86 5.62-.86 3.55 0 6.46 1.18 2.92 1.17 4.86 3.08m29.45 0-1.88 2.98q-.34.53-.7.75-.37.22-.94.22-.6 0-1.29-.33-.69-.34-1.59-.76-.91-.42-2.06-.75-1.16-.34-2.73-.34-2.45 0-3.84 1.04t-1.39 2.71q0 1.11.72 1.86.72.76 1.91 1.33t2.7 1.02q1.5.45 3.06.99 1.56.53 3.07 1.22t2.69 1.74q1.19 1.06 1.91 2.53.72 1.48.72 3.55 0 2.48-.88 4.58-.89 2.09-2.63 3.61-1.75 1.53-4.31 2.38-2.56.86-5.91.86-1.78 0-3.47-.32t-3.25-.89-2.88-1.34-2.33-1.68l1.91-3.14q.37-.57.87-.88.51-.3 1.28-.3t1.45.44q.69.43 1.6.94.9.5 2.12.93 1.23.44 3.1.44 1.48 0 2.53-.35 1.06-.35 1.74-.92.69-.57 1.01-1.33.32-.75.32-1.55 0-1.21-.72-1.98t-1.91-1.34-2.72-1.02q-1.52-.45-3.11-.99t-3.12-1.26q-1.52-.72-2.71-1.82-1.19-1.11-1.91-2.72-.72-1.6-.72-3.88 0-2.11.84-4.02.83-1.91 2.46-3.33 1.62-1.43 4.05-2.28 2.43-.86 5.61-.86 3.55 0 6.47 1.18 2.91 1.17 4.86 3.08"/></svg>