<svg xmlns="http://www.w3.org/2000/svg" width="600" height="400" viewBox="0 0 600 400"><rect width="100%" height="100%" fill="#e2e8f0"/><path fill="#334155" d="M167.315 200.335q0 5.09-1.68 9.43-1.68 4.33-4.75 7.5-3.08 3.17-7.4 4.95-4.32 1.77-9.6 1.77-5.24 0-9.56-1.77-4.32-1.78-7.41-4.95t-4.79-7.5q-1.69-4.34-1.69-9.43 0-5.08 1.69-9.42 1.7-4.34 4.79-7.5 3.09-3.17 7.41-4.95 4.32-1.77 9.56-1.77 3.52 0 6.63.81 3.1.82 5.69 2.31 2.6 1.48 4.66 3.61t3.5 4.75q1.44 2.63 2.2 5.7.75 3.07.75 6.46m-8.8 0q0-3.8-1.03-6.83-1.02-3.02-2.91-5.13-1.89-2.12-4.59-3.24t-6.1-1.12q-3.39 0-6.09 1.12-2.71 1.12-4.61 3.24-1.9 2.11-2.93 5.13-1.02 3.03-1.02 6.83 0 3.81 1.02 6.84 1.03 3.02 2.93 5.12 1.9 2.09 4.61 3.21 2.7 1.12 6.09 1.12 3.4 0 6.1-1.12t4.59-3.21q1.89-2.1 2.91-5.12 1.03-3.03 1.03-6.84m35.52-9.69h7.9v32.83h-4.83q-1.57 0-1.98-1.44l-.55-2.62q-2.01 2.04-4.45 3.31-2.43 1.26-5.72 1.26-2.69 0-4.76-.91-2.06-.91-3.47-2.58-1.41-1.66-2.13-3.95t-.72-5.04v-20.86h7.91v20.86q0 3.01 1.39 4.66t4.18 1.65q2.04 0 3.84-.92 1.79-.91 3.39-2.51zm22.69 1.98.48 3.71q1.53-2.94 3.64-4.62 2.12-1.68 5-1.68 2.27 0 3.64.99l-.51 5.92q-.16.58-.46.82-.31.24-.82.24-.48 0-1.42-.16-.95-.16-1.84-.16-1.31 0-2.34.38-1.02.39-1.84 1.11-.81.72-1.44 1.74-.62 1.02-1.17 2.34v20.22h-7.9v-32.83h4.64q1.22 0 1.7.43t.64 1.55m60.48-11.07-2.15 4.06q-.38.68-.81.98-.44.3-1.08.3-.67 0-1.45-.49-.79-.5-1.87-1.11-1.09-.6-2.55-1.1-1.45-.5-3.44-.5-1.79 0-3.13.44-1.35.43-2.26 1.2-.91.76-1.36 1.84-.45 1.07-.45 2.35 0 1.63.91 2.72.92 1.09 2.42 1.85 1.5.77 3.42 1.38t3.94 1.3q2.02.68 3.94 1.6 1.92.91 3.42 2.3t2.42 3.41q.91 2.01.91 4.89 0 3.14-1.07 5.88-1.08 2.73-3.14 4.76-2.06 2.04-5.04 3.2-2.98 1.17-6.82 1.17-2.2 0-4.35-.43-2.14-.43-4.11-1.23t-3.7-1.92q-1.72-1.12-3.07-2.5l2.53-4.13q.32-.44.83-.75.51-.3 1.09-.3.8 0 1.73.65.93.66 2.21 1.46t2.99 1.46q1.71.65 4.11.65 3.68 0 5.7-1.74 2.01-1.75 2.01-5.01 0-1.82-.91-2.98-.91-1.15-2.42-1.93-1.5-.79-3.42-1.33t-3.9-1.18q-1.99-.64-3.91-1.54t-3.42-2.34q-1.51-1.44-2.42-3.6t-.91-5.32q0-2.53 1.01-4.93t2.93-4.26q1.92-1.85 4.73-2.97 2.82-1.12 6.47-1.12 4.09 0 7.55 1.28 3.45 1.28 5.89 3.58m13.31 21.73h14.91q0-1.54-.43-2.9t-1.3-2.38q-.86-1.03-2.19-1.62t-3.09-.59q-3.42 0-5.39 1.95t-2.51 5.54m20.16 4.77h-20.32q.19 2.52.89 4.36.71 1.84 1.86 3.04t2.74 1.8q1.58.59 3.5.59t3.31-.45 2.43-.99q1.04-.55 1.83-.99.78-.45 1.52-.45.99 0 1.47.73l2.27 2.88q-1.31 1.54-2.94 2.58t-3.41 1.66q-1.78.63-3.62.88-1.84.26-3.56.26-3.43 0-6.37-1.14-2.95-1.13-5.12-3.36-2.18-2.22-3.43-5.5-1.24-3.28-1.24-7.6 0-3.36 1.08-6.32 1.09-2.96 3.12-5.15 2.04-2.19 4.96-3.47 2.93-1.28 6.61-1.28 3.11 0 5.73.99t4.51 2.89q1.89 1.91 2.96 4.68 1.07 2.76 1.07 6.32 0 1.79-.38 2.41-.38.63-1.47.63m14.75-15.43.48 3.71q1.54-2.94 3.65-4.62t4.99-1.68q2.27 0 3.65.99l-.51 5.92q-.16.58-.47.82-.3.24-.81.24-.48 0-1.43-.16-.94-.16-1.84-.16-1.31 0-2.33.38-1.03.39-1.84 1.11-.82.72-1.44 1.74-.63 1.02-1.17 2.34v20.22h-7.91v-32.83h4.64q1.22 0 1.7.43t.64 1.55m40.26-1.98h6.24l-13.03 32.83h-7.17l-13.02-32.83h6.53q.89 0 1.49.41.59.42.78 1.06l6.34 17.54q.51 1.53.89 3 .39 1.48.67 2.95.32-1.47.71-2.95.38-1.47.93-3l6.46-17.54q.22-.64.8-1.06.58-.41 1.38-.41m10.68 0h7.94v32.83h-7.94zm9.03-9.57q0 1.02-.42 1.92-.41.9-1.1 1.57t-1.62 1.07-1.98.4q-1.03 0-1.94-.4t-1.58-1.07-1.07-1.57-.4-1.92q0-1.06.4-1.98.4-.93 1.07-1.6.67-.68 1.58-1.08t1.94-.4q1.05 0 1.98.4t1.62 1.08q.69.67 1.1 1.6.42.92.42 1.98m32.57 13.63-2.08 2.88q-.35.45-.68.71-.34.25-.98.25-.61 0-1.18-.37-.58-.36-1.38-.83-.8-.46-1.9-.83-1.11-.37-2.74-.37-2.08 0-3.65.75-1.57.76-2.61 2.16-1.04 1.41-1.55 3.41t-.51 4.53q0 2.62.56 4.67t1.62 3.44q1.05 1.39 2.56 2.11 1.5.72 3.39.72t3.05-.46q1.17-.46 1.97-1.02t1.39-1.03q.6-.46 1.33-.46.96 0 1.44.73l2.27 2.88q-1.31 1.54-2.84 2.58-1.54 1.04-3.19 1.66-1.65.63-3.39.88-1.74.26-3.47.26-3.04 0-5.73-1.14-2.69-1.13-4.7-3.31-2.02-2.17-3.19-5.33-1.17-3.15-1.17-7.18 0-3.62 1.04-6.7 1.04-3.09 3.06-5.35 2.02-2.25 4.99-3.53 2.98-1.28 6.85-1.28 3.68 0 6.45 1.18t4.97 3.39m11.49 8.58h14.91q0-1.54-.43-2.9t-1.29-2.38q-.87-1.03-2.2-1.62-1.32-.59-3.08-.59-3.43 0-5.4 1.95-1.96 1.95-2.51 5.54m20.16 4.77h-20.32q.19 2.52.9 4.36.7 1.84 1.85 3.04 1.16 1.2 2.74 1.8 1.58.59 3.5.59t3.32-.45q1.39-.45 2.43-.99 1.04-.55 1.82-.99.79-.45 1.52-.45.99 0 1.47.73l2.28 2.88q-1.32 1.54-2.95 2.58t-3.41 1.66q-1.77.63-3.61.88-1.84.26-3.57.26-3.42 0-6.37-1.14-2.94-1.13-5.12-3.36-2.17-2.22-3.42-5.5t-1.25-7.6q0-3.36 1.09-6.32t3.12-5.15 4.96-3.47 6.61-1.28q3.1 0 5.72.99 2.63.99 4.52 2.89 1.88 1.91 2.96 4.68 1.07 2.76 1.07 6.32 0 1.79-.39 2.41-.38.63-1.47.63m29.6-13.86-1.79 2.85q-.32.51-.67.72t-.9.21q-.57 0-1.23-.32t-1.52-.72-1.97-.72q-1.1-.32-2.61-.32-2.33 0-3.66.99t-1.33 2.59q0 1.06.69 1.78t1.82 1.26q1.14.54 2.58.98 1.44.43 2.93.94t2.93 1.17q1.44.65 2.57 1.66 1.14 1.01 1.83 2.42.68 1.41.68 3.39 0 2.37-.84 4.37-.85 2-2.52 3.45-1.66 1.46-4.11 2.28-2.45.81-5.65.81-1.69 0-3.31-.3-1.61-.31-3.1-.85t-2.75-1.28q-1.27-.74-2.23-1.6l1.83-3.01q.35-.54.83-.83t1.21-.29q.74 0 1.4.42.65.41 1.52.89.86.48 2.03.9t2.96.42q1.41 0 2.41-.34 1.01-.34 1.67-.88.65-.54.96-1.26.3-.72.3-1.49 0-1.15-.69-1.89-.68-.74-1.82-1.28t-2.59-.98q-1.46-.43-2.98-.94t-2.97-1.2q-1.46-.69-2.6-1.74-1.13-1.06-1.82-2.6-.69-1.53-.69-3.71 0-2.01.8-3.84.8-1.82 2.35-3.18 1.56-1.36 3.88-2.18 2.32-.81 5.36-.81 3.39 0 6.17 1.12 2.79 1.12 4.64 2.94"/></svg>